<svg width="284" height="48" viewBox="0 0 284 48" xmlns="http://www.w3.org/2000/svg"><title>Docplanner logo</title><path d="M277.855 15.325c2.34 0 4.344.297 6.145.657v4.915h-4.55c-2.32 0-2.95.43-2.95 2.183v16.18h-6.25V21.356c0-2.053.675-3.593 1.56-4.45 1.56-1.324 3.683-1.58 6.045-1.58zM76.375 6.332h6.25v32.296c-2.536.74-7.35 1.013-10.18 1.013-4.434 0-7.355-.8-8.79-2.427-1.437-1.625-2.155-4.876-2.155-9.71 0-4.79.633-8.04 1.943-9.708 1.31-1.668 3.887-2.47 7.73-2.47 1.9 0 3.64.088 5.202.208v-9.2zm0 27.566v-13h-3.8c-2.075 0-3.43.424-3.98 1.23-.55.808-.845 2.593-.845 5.397 0 2.677.254 4.46.762 5.353.55.892 1.82 1.317 3.808 1.317 1.523 0 2.87-.084 4.055-.297zm85-27.566h6.25v32.93h-6.25V6.33zm-64.25 33.31c-4.553 0-6.956-.555-8.642-2.475-1.686-1.877-2.108-4.608-2.108-9.684 0-5.077.422-7.807 2.108-9.684 1.686-1.92 4.09-2.475 8.642-2.475 4.553 0 6.956.554 8.642 2.474 1.686 1.876 2.108 4.606 2.108 9.683 0 5.076-.422 7.807-2.108 9.684-1.686 1.92-4.09 2.474-8.642 2.474zm3.655-6.76c.55-.847.845-2.625.845-5.336 0-2.71-.296-4.49-.845-5.336-.55-.89-1.754-1.313-3.655-1.313-1.9 0-3.105.423-3.655 1.313-.55.847-.845 2.626-.845 5.336 0 2.71.296 4.49.845 5.337.55.89 1.754 1.312 3.655 1.312 1.9 0 3.105-.423 3.655-1.312zm105.806-17.557c4.26 0 6.452.342 8.097 1.88 1.687 1.54 2.067 3.936 2.067 8.384v13.67h-6.25V27.314c0-3.207-.034-4.577-.835-5.475-.717-.898-1.476-.94-3.67-.94h-3.87V39.26h-6.25V16.27c2.43-.524 6.115-.945 10.71-.945zm25 0c4.26 0 6.452.342 8.097 1.88 1.687 1.54 2.067 3.936 2.067 8.384v13.67h-6.25V27.314c0-3.207-.034-4.577-.835-5.475-.717-.898-1.476-.94-3.67-.94h-3.87V39.26h-6.25V16.27c2.43-.524 6.115-.945 10.71-.945zm24.52 0c4.183 0 6.93.81 8.28 2.39 1.396 1.577 2.072 4.734 2.114 9.47v2.578h-14.625c.053 1.802.357 2.927.976 3.47.635.553 1.904.836 3.805.836h8.095v4.81c-2.658.45-5.137.76-8.644.76-4.268 0-7.1-.81-8.493-2.43-1.395-1.622-2.113-4.864-2.113-9.727 0-4.906.718-8.148 2.113-9.727 1.394-1.62 4.225-2.43 8.493-2.43zm.04 5.572c-3.214 0-4.23 1.024-4.27 4.686h8.374c-.042-3.662-1.015-4.686-4.103-4.686zm-109.63-5.572c4.42 0 7.323.812 8.796 2.437 1.473 1.583 2.188 4.748 2.188 9.41 0 4.92-.673 8.255-2.02 9.966-1.304 1.71-3.872 2.503-7.702 2.503-1.968 0-3.683-.067-5.153-.19V48h-6.25V16.36c3.073-.676 7.322-1.035 10.142-1.035zm.296 5.572h-4.187V33.94c1.214.17 2.47.255 3.768.255 2.094 0 3.433-.425 3.978-1.232.587-.807.88-2.634.88-5.396 0-2.676-.25-4.46-.754-5.353-.502-.892-1.716-1.317-3.684-1.317zm34.724-5.572c3.922 0 6.62.597 8.055 1.79 1.434 1.196 2.16 3.03 2.16 5.548v16.092c-2.977.557-6.714.886-10.51.886-3.31 0-5.312-.17-7.168-1.15-1.813-1.025-2.53-2.96-2.572-6.244.042-2.73.71-4.557 2.06-5.538 1.392-.98 3.596-1.505 6.59-1.505h5.35V23.84c0-1.962-1.307-2.943-3.964-2.943l-8.16-.014v-4.765c2.206-.494 5.208-.793 8.16-.793zm3.964 18.83v-4.772h-4.818c-2.178 0-2.932.67-2.932 2.512 0 1.967.88 2.554 3.56 2.554 1.802 0 3.134-.1 4.19-.295zm-52.875-10.218h-6.388c-.14-.8-.342-1.396-.597-1.79-.55-.89-1.752-1.313-3.65-1.313-1.9 0-3.103.423-3.652 1.313-.55.847-.844 2.625-.844 5.336 0 2.71.295 4.49.844 5.336.55.888 1.75 1.312 3.65 1.312s3.103-.424 3.652-1.313c.255-.395.456-.992.597-1.79h6.388c-.206 2.907-.76 4.754-2.003 6.137-1.684 1.92-4.085 2.474-8.633 2.474-4.55 0-6.95-.553-8.634-2.473-1.685-1.877-2.106-4.608-2.106-9.684 0-5.077.42-7.807 2.106-9.684 1.684-1.92 4.085-2.475 8.633-2.475 4.547 0 6.948.554 8.632 2.474 1.242 1.382 1.797 3.23 2.003 6.137zM30 5.067h10v10.13H0V5.068h10V0h5v5.066h10V0h5v5.066zm10 15.197v10.132h-5V25.33h-5v-5.066h10zm-15 0v10.132h-5V25.33h-5v-5.066h10zm-15 0v10.132H5V25.33H0v-5.066h10zm30 15.198v10.132h-5v-5.066h-5v-5.066h10zm-15 0v10.132h-5v-5.066h-5v-5.066h10zm-15 0v10.132H5v-5.066H0v-5.066h10z" fill-rule="evenodd" /></svg>
